# xmcd
# 
# Track frame offsets:
#     182
#     25145
#     46632
#     69857
#     88720
#     111720
#     131470
#     151370
#     169707
#     192107
#     212382
#     236195
#     255632
#     271920
#     290307
#     306545
#     327782
# 
# Disc length: 4586
# 
# Revision: 5
# Processed by: cddbd v1.5.2PL0 Copyright (c) Steve Scherf et al.
# Submitted via: fre:ac v1.0.17
# 
DISCID=ea11e811
DTITLE=Daniel Balavoine - Master Serie vol. 2
DYEAR=1992
DGENRE=Chanson Franaise
TTITLE0=Pour la femme veuve qui s'veille
TTITLE1=Petite Angle
TTITLE2=Partir avant les miens
TTITLE3=Aimer est plus fort que d'tre aim
TTITLE4=Tous les cris les S.O.S.
TTITLE5=L'Aziza
TTITLE6=Sauver l'amour
TTITLE7=Les petits lolos
TTITLE8=Petit homme mort au combat
TTITLE9=Lipstick polychrome
TTITLE10=Je ne suis pas un hros
TTITLE11=La vie ne m'apprend rien
TTITLE12=Vivre ou survivre
TTITLE13=Dieu que l'amour est triste
TTITLE14=Soulve-moi
TTITLE15=Vendeurs de larmes
TTITLE16=Me laisse pas m'en aller
EXTD=
EXTT0=
EXTT1=
EXTT2=
EXTT3=
EXTT4=
EXTT5=
EXTT6=
EXTT7=
EXTT8=
EXTT9=
EXTT10=
EXTT11=
EXTT12=
EXTT13=
EXTT14=
EXTT15=
EXTT16=
PLAYORDER=
